<svg xmlns="http://www.w3.org/2000/svg" width="170.936" height="40.355" viewBox="0 0 170.936 40.355">
  <g id="LOGO" transform="translate(-0.553 -2.558)">
    <g id="XMLID_10_">
      <g id="XMLID_16_">
        <path id="XMLID_26_" d="M55.254,27.7H50.468v7.282H46.673V11.569h8.581q7.965,0,7.965,7.863a8.637,8.637,0,0,1-2,6.153Q59.219,27.706,55.254,27.7Zm-4.787-3.282h4.752q4.1,0,4.1-4.991a5.1,5.1,0,0,0-.991-3.487,4,4,0,0,0-3.111-1.094H50.467Z"/>
        <path id="XMLID_29_" d="M68,34.987v-24.2h3.726v24.2Z"/>
        <path id="XMLID_31_" d="M90.466,23.159v7.8a1.622,1.622,0,0,0,.393,1.111,1.9,1.9,0,0,0,1.111.462l-.1,2.838A7.2,7.2,0,0,1,87.321,34.1a13.012,13.012,0,0,1-5.5,1.265q-5.1,0-5.094-5.436a4.653,4.653,0,0,1,1.385-3.761,7.541,7.541,0,0,1,4.256-1.4l4.41-.376V23.16a2.523,2.523,0,0,0-.6-1.915,2.526,2.526,0,0,0-1.761-.547q-2.188,0-5.47.273l-1.094.069-.137-2.632a29.688,29.688,0,0,1,6.854-.889q3.127,0,4.513,1.35A5.776,5.776,0,0,1,90.466,23.159ZM82.808,27.4a2.3,2.3,0,0,0-2.359,2.565q0,2.358,2.085,2.358a13.236,13.236,0,0,0,3.624-.546l.615-.206V27.022Z"/>
        <path id="XMLID_34_" d="M100.243,34.987H96.517V17.894h3.692v1.06a9.512,9.512,0,0,1,4.717-1.436q3.418,0,4.667,1.932t1.248,6.376v9.162h-3.692V25.929a9.28,9.28,0,0,0-.6-3.932,2.485,2.485,0,0,0-2.445-1.162,8.464,8.464,0,0,0-3.35.684l-.513.2V34.987Z"/>
        <path id="XMLID_36_" d="M125.746,21.073h-4.718v7.521a7.963,7.963,0,0,0,.308,2.769q.308.684,1.572.683l2.8-.1.171,2.974a19.96,19.96,0,0,1-3.487.445q-2.907,0-3.983-1.334T117.335,29V21.073h-2.188v-3.18h2.188V12.936h3.692v4.957h4.718v3.18Z"/>
        <path id="XMLID_38_" d="M130.156,14.988V11.056h3.726v3.932Zm0,20V17.894h3.726V34.988h-3.726Z"/>
        <path id="XMLID_41_" d="M151.625,21.415a49.345,49.345,0,0,0-5.846-.547,5.222,5.222,0,0,0-2.513.427,1.465,1.465,0,0,0-.7,1.35,1.331,1.331,0,0,0,.769,1.3,17.423,17.423,0,0,0,3.624.871,8.35,8.35,0,0,1,4.052,1.556q1.2,1.059,1.2,3.761a4.584,4.584,0,0,1-1.726,3.965,8.466,8.466,0,0,1-5.042,1.265,30.4,30.4,0,0,1-5.265-.582l-1.06-.171.136-3.111a50.577,50.577,0,0,0,5.914.547,5.485,5.485,0,0,0,2.582-.444,1.563,1.563,0,0,0,.769-1.47,1.464,1.464,0,0,0-.735-1.418,14.6,14.6,0,0,0-3.521-.855,9.364,9.364,0,0,1-4.085-1.453q-1.3-.991-1.3-3.624a4.535,4.535,0,0,1,1.795-3.932,7.648,7.648,0,0,1,4.6-1.3,32.635,32.635,0,0,1,5.367.547l1.06.2Z"/>
        <path id="XMLID_43_" d="M160.89,34.987h-3.726v-24.2h3.726v8a10.573,10.573,0,0,1,4.684-1.265q3.419,0,4.667,1.932t1.248,6.376v9.162h-3.726V25.929A9.519,9.519,0,0,0,167.182,22a2.481,2.481,0,0,0-2.461-1.162,10.339,10.339,0,0,0-3.282.547l-.547.2v13.4Z"/>
      </g>
      <path id="XMLID_15_" d="M34.5,2.558s1.5,3.493-10.812,8.65S11.713,22.519,11.546,33.5s6.487,4.491,6.487,4.491l-4.491-2.394S10.548,26.012,16.2,22.685s5.323-4.491,5.323-4.491,1.04,2.068-5.864,6.948A4.228,4.228,0,0,0,14.5,29.023c.361,2.661,11.228.915,16.441-6.737S38.4,5.12,34.5,2.558Z" fill="#7fbb3d"/>
      <path id="XMLID_14_" d="M39.589,23.4A19.527,19.527,0,1,1,29.181,6.137c-1.3.658-2.791,1.345-4.491,2.057a43.233,43.233,0,0,0-4.805,2.339A12.856,12.856,0,0,0,9.669,30.953a12.9,12.9,0,0,0,10.4,5.306A12.879,12.879,0,0,0,32.935,23.4c0-.12,0-.24-.006-.358q.4-.516.777-1.062a46.448,46.448,0,0,0,3.949-7.044A19.371,19.371,0,0,1,39.589,23.4Z" fill="#014e37"/>
    </g>
  </g>
</svg>
